{"title":"Formula 1 2007 Round 4 Spain Race","uid":9220954,"size":728769911,"categoryP":"video","categoryS":"tv_shows","magnet":"?xt=urn:btih:6df3252cac5d7e7290a9e4756c4dabb32008ea5c&amp;dn=Formula+1+2007+Round+4+Spain+Race&amp;tr=udp%3A%2F%2Ftracker.openbittorrent.com%3A80&amp;tr=udp%3A%2F%2Fopen.demonii.com%3A1337&amp;tr=udp%3A%2F%2Ftracker.coppersurfer.tk%3A6969&amp;tr=udp%3A%2F%2Fexodus.desync.com%3A6969","seeders":0,"leechers":2,"uploader":"totocon","files":1,"time":1384936560,"description":"ITV broadcast\n\nPlease seed untill 1:1 or higher so i can upload more races.\n\nthank you!\n\nFormat                                   : Matroska\nFormat version                           : Version 4 / Version 2\nFile size                                : 695 MiB\nDuration                                 : 1h 40mn\nOverall bit rate                         : 966 Kbps\nEncoded date                             : UTC 2013-11-20 07:09:16\nWriting application                      : mkvmerge v6.3.0 ('You can't stop me!') built on Jun 27 2013 22:06:07\nWriting library                          : libebml v1.3.0 + libmatroska v1.4.0\n\nVideo\nID                                       : 1\nFormat                                   : MPEG-4 Visual\nFormat profile                           : Simple@L3\nFormat settings, BVOP                    : Yes\nFormat settings, QPel                    : No\nFormat settings, GMC                     : No warppoints\nFormat settings, Matrix                  : Default (H.263)\nCodec ID                                 : V_MS/VFW/FOURCC / DX50\nCodec ID/Hint                            : DivX 5\nDuration                                 : 1h 40mn\nBit rate                                 : 819 Kbps\nWidth                                    : 640 pixels\nHeight                                   : 352 pixels\nDisplay aspect ratio                     : 16:9\nFrame rate mode                          : Constant\nFrame rate                               : 25.000 fps\nColor space                              : YUV\nChroma subsampling                       : 4:2:0\nBit depth                                : 8 bits\nScan type                                : Progressive\nCompression mode                         : Lossy\nBits/(Pixel*Frame)                       : 0.145\nStream size                              : 589 MiB (85%)\nWriting library                          : XviD 1.0.3 (UTC 2004-12-20)\nDefault                                  : Yes\nForced                                   : No\n\nAudio\nID                                       : 2\nFormat                                   : MPEG Audio\nFormat version                           : Version 1\nFormat profile                           : Layer 3\nMode                                     : Joint stereo\nMode extension                           : MS Stereo\nCodec ID                                 : A_MPEG/L3\nCodec ID/Hint                            : MP3\nDuration                                 : 1h 40mn\nBit rate mode                            : Constant\nBit rate                                 : 128 Kbps\nChannel(s)                               : 2 channels\nSampling rate                            : 48.0 KHz\nCompression mode                         : Lossy\nStream size                              : 92.1 MiB (13%)\nDefault                                  : Yes\nForced                                   : No\n\n","torrent":{"xt":"urn:btih:6df3252cac5d7e7290a9e4756c4dabb32008ea5c","amp;dn":"Formula+1+2007+Round+4+Spain+Race","amp;tr":["udp%3A%2F%2Ftracker.openbittorrent.com%3A80","udp%3A%2F%2Fopen.demonii.com%3A1337","udp%3A%2F%2Ftracker.coppersurfer.tk%3A6969","udp%3A%2F%2Fexodus.desync.com%3A6969"],"infoHash":"6df3252cac5d7e7290a9e4756c4dabb32008ea5c","infoHashBuffer":{"type":"Buffer","data":[109,243,37,44,172,93,126,114,144,169,228,117,108,77,171,179,32,8,234,92]},"announce":[],"urlList":[]}}